<?xml version="1.0" encoding="utf-8"?>
<!-- Generator: Adobe Illustrator 13.0.0, SVG Export Plug-In . SVG Version: 6.00 Build 14576)  -->
<!DOCTYPE svg PUBLIC "-//W3C//DTD SVG 1.1//EN" "http://www.w3.org/Graphics/SVG/1.1/DTD/svg11.dtd">
<svg version="1.1" id="Layer_1" xmlns="http://www.w3.org/2000/svg" xmlns:xlink="http://www.w3.org/1999/xlink" x="0px" y="0px"
	 width="598.484px" height="550.845px" viewBox="0 0 598.484 550.845" enable-background="new 0 0 598.484 550.845"
	 xml:space="preserve">
<g>
	<circle opacity="0" fill="#FFFFFF" cx="73.118" cy="480.476" r="70.367"/>
	<circle opacity="0.0109" fill="#FDFEFF" cx="73.095" cy="480.459" r="70.24"/>
	<circle opacity="0.0217" fill="#FBFEFF" cx="73.073" cy="480.441" r="70.112"/>
	<circle opacity="0.0326" fill="#FAFDFF" cx="73.051" cy="480.422" r="69.985"/>
	<circle opacity="0.0435" fill="#F8FCFF" cx="73.028" cy="480.404" r="69.858"/>
	<circle opacity="0.0543" fill="#F7FCFE" cx="73.006" cy="480.386" r="69.73"/>
	<circle opacity="0.0652" fill="#F6FCFE" cx="72.984" cy="480.368" r="69.603"/>
	<circle opacity="0.0761" fill="#F5FBFE" cx="72.962" cy="480.35" r="69.475"/>
	<circle opacity="0.087" fill="#F4FBFE" cx="72.94" cy="480.331" r="69.348"/>
	<circle opacity="0.0978" fill="#F3FAFE" cx="72.918" cy="480.313" r="69.221"/>
	<circle opacity="0.1087" fill="#F2FAFE" cx="72.896" cy="480.294" r="69.093"/>
	<circle opacity="0.1196" fill="#F0F9FE" cx="72.874" cy="480.276" r="68.965"/>
	<circle opacity="0.1304" fill="#EFF9FE" cx="72.852" cy="480.258" r="68.838"/>
	<circle opacity="0.1413" fill="#EEF9FE" cx="72.83" cy="480.24" r="68.711"/>
	<circle opacity="0.1522" fill="#EDF8FE" cx="72.808" cy="480.221" r="68.583"/>
	<circle opacity="0.163" fill="#ECF8FE" cx="72.786" cy="480.203" r="68.456"/>
	<circle opacity="0.1739" fill="#EBF7FE" cx="72.764" cy="480.185" r="68.328"/>
	<circle opacity="0.1848" fill="#EAF7FE" cx="72.742" cy="480.167" r="68.201"/>
	<circle opacity="0.1957" fill="#E9F7FE" cx="72.72" cy="480.148" r="68.073"/>
	<circle opacity="0.2065" fill="#E8F6FE" cx="72.698" cy="480.13" r="67.946"/>
	<circle opacity="0.2174" fill="#E7F6FD" cx="72.676" cy="480.112" r="67.818"/>
	<circle opacity="0.2283" fill="#E6F6FD" cx="72.654" cy="480.094" r="67.691"/>
	<circle opacity="0.2391" fill="#E5F5FD" cx="72.631" cy="480.075" r="67.563"/>
	<circle opacity="0.25" fill="#E4F5FD" cx="72.609" cy="480.057" r="67.436"/>
	<circle opacity="0.2609" fill="#E3F4FD" cx="72.587" cy="480.039" r="67.309"/>
	<circle opacity="0.2717" fill="#E2F4FD" cx="72.565" cy="480.02" r="67.181"/>
	<circle opacity="0.2826" fill="#E1F4FD" cx="72.543" cy="480.002" r="67.053"/>
	<circle opacity="0.2935" fill="#E0F3FD" cx="72.521" cy="479.984" r="66.926"/>
	<circle opacity="0.3043" fill="#DFF3FD" cx="72.499" cy="479.966" r="66.798"/>
	<circle opacity="0.3152" fill="#DEF2FD" cx="72.477" cy="479.947" r="66.671"/>
	<circle opacity="0.3261" fill="#DDF2FD" cx="72.455" cy="479.929" r="66.543"/>
	<circle opacity="0.337" fill="#DCF2FD" cx="72.433" cy="479.911" r="66.416"/>
	<circle opacity="0.3478" fill="#DBF1FD" cx="72.411" cy="479.893" r="66.289"/>
	<circle opacity="0.3587" fill="#DAF1FD" cx="72.389" cy="479.874" r="66.161"/>
	<circle opacity="0.3696" fill="#D9F0FD" cx="72.367" cy="479.855" r="66.034"/>
	<circle opacity="0.3804" fill="#D7F0FC" cx="72.345" cy="479.837" r="65.906"/>
	<circle opacity="0.3913" fill="#D6F0FC" cx="72.323" cy="479.819" r="65.779"/>
	<circle opacity="0.4022" fill="#D5EFFC" cx="72.301" cy="479.801" r="65.651"/>
	<circle opacity="0.413" fill="#D4EFFC" cx="72.279" cy="479.783" r="65.523"/>
	<circle opacity="0.4239" fill="#D3EFFC" cx="72.257" cy="479.764" r="65.396"/>
	<circle opacity="0.4348" fill="#D2EEFC" cx="72.234" cy="479.746" r="65.269"/>
	<circle opacity="0.4457" fill="#D1EEFC" cx="72.212" cy="479.728" r="65.141"/>
	<circle opacity="0.4565" fill="#D0EDFC" cx="72.19" cy="479.709" r="65.014"/>
	<circle opacity="0.4674" fill="#CFEDFC" cx="72.168" cy="479.691" r="64.886"/>
	<circle opacity="0.4783" fill="#CEEDFC" cx="72.146" cy="479.673" r="64.759"/>
	<circle opacity="0.4891" fill="#CDECFC" cx="72.125" cy="479.654" r="64.631"/>
	<circle opacity="0.5" fill="#CCECFC" cx="72.102" cy="479.636" r="64.504"/>
	<circle opacity="0.5109" fill="#CBECFC" cx="72.08" cy="479.618" r="64.376"/>
	<circle opacity="0.5217" fill="#CAEBFC" cx="72.058" cy="479.6" r="64.249"/>
	<circle opacity="0.5326" fill="#C9EBFC" cx="72.036" cy="479.581" r="64.122"/>
	<circle opacity="0.5435" fill="#C8EAFB" cx="72.014" cy="479.563" r="63.994"/>
	<circle opacity="0.5543" fill="#C7EAFB" cx="71.992" cy="479.545" r="63.867"/>
	<circle opacity="0.5652" fill="#C6EAFB" cx="71.97" cy="479.526" r="63.739"/>
	<circle opacity="0.5761" fill="#C5E9FB" cx="71.948" cy="479.508" r="63.611"/>
	<circle opacity="0.587" fill="#C3E9FB" cx="71.926" cy="479.49" r="63.484"/>
	<circle opacity="0.5978" fill="#C2E9FB" cx="71.904" cy="479.472" r="63.357"/>
	<circle opacity="0.6087" fill="#C1E8FB" cx="71.882" cy="479.453" r="63.229"/>
	<circle opacity="0.6196" fill="#C0E8FB" cx="71.86" cy="479.435" r="63.102"/>
	<circle opacity="0.6304" fill="#BFE8FB" cx="71.838" cy="479.417" r="62.974"/>
	<circle opacity="0.6413" fill="#BEE7FB" cx="71.815" cy="479.398" r="62.847"/>
	<circle opacity="0.6522" fill="#BDE7FB" cx="71.793" cy="479.38" r="62.719"/>
	<circle opacity="0.663" fill="#BCE6FB" cx="71.771" cy="479.362" r="62.592"/>
	<circle opacity="0.6739" fill="#BBE6FB" cx="71.75" cy="479.344" r="62.464"/>
	<circle opacity="0.6848" fill="#BAE6FB" cx="71.728" cy="479.326" r="62.337"/>
	<circle opacity="0.6957" fill="#B9E5FB" cx="71.706" cy="479.307" r="62.209"/>
	<circle opacity="0.7065" fill="#B8E5FA" cx="71.683" cy="479.289" r="62.082"/>
	<circle opacity="0.7174" fill="#B7E5FA" cx="71.661" cy="479.271" r="61.955"/>
	<circle opacity="0.7283" fill="#B5E4FA" cx="71.639" cy="479.252" r="61.827"/>
	<circle opacity="0.7391" fill="#B4E4FA" cx="71.617" cy="479.234" r="61.699"/>
	<circle opacity="0.75" fill="#B3E3FA" cx="71.595" cy="479.216" r="61.572"/>
	<circle opacity="0.7609" fill="#B2E3FA" cx="71.573" cy="479.197" r="61.445"/>
	<circle opacity="0.7717" fill="#B1E3FA" cx="71.551" cy="479.179" r="61.317"/>
	<circle opacity="0.7826" fill="#B0E2FA" cx="71.529" cy="479.161" r="61.189"/>
	<circle opacity="0.7935" fill="#AFE2FA" cx="71.507" cy="479.143" r="61.062"/>
	<circle opacity="0.8043" fill="#AEE2FA" cx="71.485" cy="479.125" r="60.935"/>
	<circle opacity="0.8152" fill="#ADE1FA" cx="71.463" cy="479.105" r="60.807"/>
	<circle opacity="0.8261" fill="#ACE1FA" cx="71.441" cy="479.087" r="60.68"/>
	<circle opacity="0.837" fill="#AAE1FA" cx="71.418" cy="479.069" r="60.552"/>
	<circle opacity="0.8478" fill="#A9E0FA" cx="71.396" cy="479.051" r="60.425"/>
	<circle opacity="0.8587" fill="#A8E0F9" cx="71.375" cy="479.033" r="60.297"/>
	<circle opacity="0.8696" fill="#A7DFF9" cx="71.353" cy="479.014" r="60.17"/>
	<circle opacity="0.8804" fill="#A6DFF9" cx="71.331" cy="478.996" r="60.042"/>
	<circle opacity="0.8913" fill="#A5DFF9" cx="71.309" cy="478.978" r="59.915"/>
	<circle opacity="0.9022" fill="#A4DEF9" cx="71.286" cy="478.959" r="59.787"/>
	<circle opacity="0.913" fill="#A3DEF9" cx="71.264" cy="478.941" r="59.66"/>
	<circle opacity="0.9239" fill="#A1DEF9" cx="71.242" cy="478.923" r="59.533"/>
	<circle opacity="0.9348" fill="#A0DDF9" cx="71.22" cy="478.905" r="59.405"/>
	<circle opacity="0.9457" fill="#9FDDF9" cx="71.198" cy="478.886" r="59.277"/>
	<circle opacity="0.9565" fill="#9EDDF9" cx="71.176" cy="478.868" r="59.15"/>
	<circle opacity="0.9674" fill="#9DDCF9" cx="71.154" cy="478.85" r="59.022"/>
	<circle opacity="0.9783" fill="#9CDCF9" cx="71.132" cy="478.832" r="58.896"/>
	<circle opacity="0.9891" fill="#9BDCF9" cx="71.11" cy="478.813" r="58.768"/>
	<circle fill="#99DBF9" cx="71.088" cy="478.796" r="58.64"/>
</g>
<path fill="#FFFFFF" stroke="#000000" stroke-width="15" stroke-linejoin="round" d="M311.984,63.373h12.328c0,0,33.348,0,59.172,26
	c25.823,26,60.828,26,60.828,26h10.672"/>
<path fill="#FFFFFF" stroke="#000000" stroke-width="15" stroke-linejoin="round" d="M597.984,63.373h-12.328
	c0,0-33.348,0-59.172,26s-60.828,26-60.828,26h-10.672"/>
<path fill="#FFFFFF" stroke="#000000" stroke-width="15" stroke-linejoin="round" d="M312.484,115.373h12.328
	c0,0,33.348,0,59.172-26c25.823-26,60.828-26,60.828-26h10.672"/>
<path fill="#FFFFFF" stroke="#000000" stroke-width="15" stroke-linejoin="round" d="M598.484,115.373h-12.328
	c0,0-33.348,0-59.172-26s-60.828-26-60.828-26h-10.672"/>
<g>
	<g>
		<g>
			<path fill="#FFFFFF" stroke="#FFFFFF" stroke-width="10" stroke-linecap="round" stroke-linejoin="bevel" d="M439.119,49.496
				l-31.5,72c-1.66,3.795,0.07,8.217,3.865,9.877s8.217-0.07,9.877-3.865l31.5-72c1.66-3.795-0.07-8.217-3.865-9.877
				S440.779,45.701,439.119,49.496z"/>
		</g>
		<g>
			<path d="M439.119,49.496l-31.5,72c-1.66,3.795,0.07,8.217,3.865,9.877s8.217-0.07,9.877-3.865l31.5-72
				c1.66-3.795-0.07-8.217-3.865-9.877S440.779,45.701,439.119,49.496z"/>
		</g>
	</g>
	<g>
		<g>
			<path fill="#FFFFFF" stroke="#FFFFFF" stroke-width="10" stroke-linecap="round" stroke-linejoin="bevel" d="M508.85,88.496
				l31.5,72c1.66,3.795-0.07,8.217-3.865,9.877s-8.217-0.07-9.877-3.865l-31.5-72c-1.66-3.795,0.068-8.217,3.863-9.877
				S507.189,84.701,508.85,88.496z"/>
		</g>
		<g>
			<path d="M508.85,88.496l31.5,72c1.66,3.795-0.07,8.217-3.865,9.877s-8.217-0.07-9.877-3.865l-31.5-72
				c-1.66-3.795,0.068-8.217,3.863-9.877S507.189,84.701,508.85,88.496z"/>
		</g>
	</g>
	<g>
		<g>
			<path fill="#FFFFFF" stroke="#FFFFFF" stroke-width="10" stroke-linecap="round" stroke-linejoin="bevel" d="M382.349,9.496
				l31.501,72c1.66,3.795-0.07,8.217-3.865,9.877s-8.217-0.07-9.877-3.865l-31.501-72c-1.66-3.795,0.069-8.217,3.864-9.877
				S380.688,5.701,382.349,9.496z"/>
		</g>
		<g>
			<path d="M382.349,9.496l31.501,72c1.66,3.795-0.07,8.217-3.865,9.877s-8.217-0.07-9.877-3.865l-31.501-72
				c-1.66-3.795,0.069-8.217,3.864-9.877S380.688,5.701,382.349,9.496z"/>
		</g>
	</g>
	<g>
		<g>
			<path fill="#FFFFFF" stroke="#FFFFFF" stroke-width="10" stroke-linecap="round" stroke-linejoin="bevel" d="M462.619,49.496
				l-31.5,72c-1.66,3.795,0.07,8.217,3.865,9.877s8.217-0.07,9.877-3.865l31.5-72c1.66-3.795-0.07-8.217-3.865-9.877
				S464.279,45.701,462.619,49.496z"/>
		</g>
		<g>
			<path d="M462.619,49.496l-31.5,72c-1.66,3.795,0.07,8.217,3.865,9.877s8.217-0.07,9.877-3.865l31.5-72
				c1.66-3.795-0.07-8.217-3.865-9.877S464.279,45.701,462.619,49.496z"/>
		</g>
	</g>
	<g>
		<g>
			<path fill="#FFFFFF" stroke="#FFFFFF" stroke-width="10" stroke-linecap="round" stroke-linejoin="bevel" d="M486.119,49.496
				l-31.5,72c-1.66,3.795,0.07,8.217,3.865,9.877s8.217-0.07,9.877-3.865l31.5-72c1.66-3.795-0.07-8.217-3.865-9.877
				S487.779,45.701,486.119,49.496z"/>
		</g>
		<g>
			<path d="M486.119,49.496l-31.5,72c-1.66,3.795,0.07,8.217,3.865,9.877s8.217-0.07,9.877-3.865l31.5-72
				c1.66-3.795-0.07-8.217-3.865-9.877S487.779,45.701,486.119,49.496z"/>
		</g>
	</g>
	<g>
		<g>
			<path fill="#FFFFFF" stroke="#FFFFFF" stroke-width="10" stroke-linecap="round" stroke-linejoin="bevel" d="M526.619,9.496
				l-48.5,112c-1.66,3.795,0.07,8.217,3.865,9.877s8.217-0.07,9.877-3.865l48.5-112c1.66-3.795-0.07-8.217-3.865-9.877
				S528.279,5.701,526.619,9.496z"/>
		</g>
		<g>
			<path d="M526.619,9.496l-48.5,112c-1.66,3.795,0.07,8.217,3.865,9.877s8.217-0.07,9.877-3.865l48.5-112
				c1.66-3.795-0.07-8.217-3.865-9.877S528.279,5.701,526.619,9.496z"/>
		</g>
	</g>
	<g>
		<g>
			<path fill="#FFFFFF" stroke="#FFFFFF" stroke-width="10" stroke-linecap="round" stroke-linejoin="bevel" d="M415.619,49.496
				l-48.5,112c-1.66,3.795,0.07,8.217,3.865,9.877s8.217-0.07,9.877-3.865l48.5-112c1.66-3.795-0.07-8.217-3.865-9.877
				S417.279,45.701,415.619,49.496z"/>
		</g>
		<g>
			<path d="M415.619,49.496l-48.5,112c-1.66,3.795,0.07,8.217,3.865,9.877s8.217-0.07,9.877-3.865l48.5-112
				c1.66-3.795-0.07-8.217-3.865-9.877S417.279,45.701,415.619,49.496z"/>
		</g>
	</g>
</g>
<g>
	<path fill="#FFFFFF" enable-background="new    " d="M0,74.383h12.328c0,0,33.348,0,59.172,26s60.828,26,60.828,26H143"/>
	<path fill="#00AEEF" d="M0,66.883v15h12.328c0.282,0.002,30.673,0.45,53.851,23.785c27.705,27.895,64.593,28.215,66.149,28.215H143
		v-15h-10.672c-0.301-0.002-32.313-0.434-55.507-23.785C49.116,67.203,13.817,66.883,12.328,66.883H0z"/>
</g>
<g>
	<path fill="#FFFFFF" enable-background="new    " d="M286,74.383h-12.328c0,0-33.348,0-59.172,26s-60.828,26-60.828,26H143"/>
	<path fill="#00AEEF" d="M273.672,66.883c-1.489,0-36.788,0.32-64.493,28.215c-23.193,23.352-55.206,23.783-55.526,23.785H143v15
		h10.672c1.557,0,38.444-0.32,66.149-28.215c23.178-23.335,53.568-23.783,53.872-23.785H286v-15H273.672z"/>
</g>
<g>
	<path fill="#FFFFFF" enable-background="new    " d="M0.5,126.383h12.328c0,0,33.348,0,59.172-26s60.828-26,60.828-26H143.5"/>
	<path fill="#00AEEF" d="M132.828,66.883c-1.557,0-38.444,0.32-66.149,28.215c-23.177,23.335-53.568,23.783-53.873,23.785H0.5v15
		h12.328c1.489,0,36.788-0.32,64.493-28.215c23.193-23.352,55.206-23.783,55.526-23.785H143.5v-15H132.828z"/>
</g>
<g>
	<path fill="#FFFFFF" enable-background="new    " d="M286.5,126.383h-12.328c0,0-33.348,0-59.172-26s-60.828-26-60.828-26H143.5"/>
	<path fill="#00AEEF" d="M143.5,66.883v15h10.672c0.301,0.002,32.313,0.434,55.507,23.785
		c27.705,27.895,63.004,28.215,64.493,28.215H286.5v-15h-12.328c-0.282-0.002-30.673-0.45-53.851-23.785
		c-27.705-27.895-64.593-28.215-66.149-28.215H143.5z"/>
</g>
<g>
	<g>
		<g>
			<path fill="#FFFFFF" stroke="#FFFFFF" stroke-width="10" stroke-linecap="round" stroke-linejoin="bevel" d="M127.135,60.505
				l-31.5,72c-1.66,3.795,0.07,8.217,3.865,9.877s8.217-0.07,9.877-3.865l31.5-72c1.66-3.795-0.069-8.217-3.864-9.877
				S128.795,56.71,127.135,60.505z"/>
		</g>
		<g>
			<path fill="#00AEEF" d="M127.135,60.505l-31.5,72c-1.66,3.795,0.07,8.217,3.865,9.877s8.217-0.07,9.877-3.865l31.5-72
				c1.66-3.795-0.069-8.217-3.864-9.877S128.795,56.71,127.135,60.505z"/>
		</g>
	</g>
	<g>
		<g>
			<path fill="#FFFFFF" stroke="#FFFFFF" stroke-width="10" stroke-linecap="round" stroke-linejoin="bevel" d="M196.865,99.506
				l31.5,72c1.66,3.795-0.07,8.217-3.865,9.877s-8.217-0.07-9.877-3.865l-31.5-72c-1.66-3.795,0.069-8.217,3.864-9.877
				S195.205,95.711,196.865,99.506z"/>
		</g>
		<g>
			<path fill="#00AEEF" d="M196.865,99.506l31.5,72c1.66,3.795-0.07,8.217-3.865,9.877s-8.217-0.07-9.877-3.865l-31.5-72
				c-1.66-3.795,0.069-8.217,3.864-9.877S195.205,95.711,196.865,99.506z"/>
		</g>
	</g>
	<g>
		<g>
			<path fill="#FFFFFF" stroke="#FFFFFF" stroke-width="10" stroke-linecap="round" stroke-linejoin="bevel" d="M70.365,20.505
				l31.5,72c1.66,3.795-0.07,8.217-3.865,9.877s-8.217-0.07-9.877-3.865l-31.5-72c-1.66-3.795,0.07-8.217,3.865-9.877
				S68.705,16.71,70.365,20.505z"/>
		</g>
		<g>
			<path fill="#00AEEF" d="M70.365,20.505l31.5,72c1.66,3.795-0.07,8.217-3.865,9.877s-8.217-0.07-9.877-3.865l-31.5-72
				c-1.66-3.795,0.07-8.217,3.865-9.877S68.705,16.71,70.365,20.505z"/>
		</g>
	</g>
	<g>
		<g>
			<path fill="#FFFFFF" stroke="#FFFFFF" stroke-width="10" stroke-linecap="round" stroke-linejoin="bevel" d="M150.635,60.505
				l-31.5,72c-1.66,3.795,0.07,8.217,3.865,9.877s8.217-0.07,9.877-3.865l31.5-72c1.66-3.795-0.069-8.217-3.864-9.877
				S152.295,56.71,150.635,60.505z"/>
		</g>
		<g>
			<path fill="#00AEEF" d="M150.635,60.505l-31.5,72c-1.66,3.795,0.07,8.217,3.865,9.877s8.217-0.07,9.877-3.865l31.5-72
				c1.66-3.795-0.069-8.217-3.864-9.877S152.295,56.71,150.635,60.505z"/>
		</g>
	</g>
	<g>
		<g>
			<path fill="#FFFFFF" stroke="#FFFFFF" stroke-width="10" stroke-linecap="round" stroke-linejoin="bevel" d="M174.135,60.505
				l-31.5,72c-1.66,3.795,0.07,8.217,3.865,9.877s8.217-0.07,9.877-3.865l31.5-72c1.66-3.795-0.069-8.217-3.864-9.877
				S175.795,56.71,174.135,60.505z"/>
		</g>
		<g>
			<path fill="#00AEEF" d="M174.135,60.505l-31.5,72c-1.66,3.795,0.07,8.217,3.865,9.877s8.217-0.07,9.877-3.865l31.5-72
				c1.66-3.795-0.069-8.217-3.864-9.877S175.795,56.71,174.135,60.505z"/>
		</g>
	</g>
	<g>
		<g>
			<path fill="#FFFFFF" stroke="#FFFFFF" stroke-width="10" stroke-linecap="round" stroke-linejoin="bevel" d="M214.635,20.505
				l-48.5,112c-1.66,3.795,0.07,8.217,3.865,9.877s8.217-0.07,9.877-3.865l48.5-112c1.66-3.795-0.069-8.217-3.864-9.877
				S216.295,16.71,214.635,20.505z"/>
		</g>
		<g>
			<path fill="#00AEEF" d="M214.635,20.505l-48.5,112c-1.66,3.795,0.07,8.217,3.865,9.877s8.217-0.07,9.877-3.865l48.5-112
				c1.66-3.795-0.069-8.217-3.864-9.877S216.295,16.71,214.635,20.505z"/>
		</g>
	</g>
	<g>
		<g>
			<path fill="#FFFFFF" stroke="#FFFFFF" stroke-width="10" stroke-linecap="round" stroke-linejoin="bevel" d="M103.635,60.505
				l-48.5,112c-1.66,3.795,0.07,8.217,3.865,9.877s8.217-0.07,9.877-3.865l48.5-112c1.66-3.795-0.069-8.217-3.864-9.877
				S105.295,56.71,103.635,60.505z"/>
		</g>
		<g>
			<path fill="#00AEEF" d="M103.635,60.505l-48.5,112c-1.66,3.795,0.07,8.217,3.865,9.877s8.217-0.07,9.877-3.865l48.5-112
				c1.66-3.795-0.069-8.217-3.864-9.877S105.295,56.71,103.635,60.505z"/>
		</g>
	</g>
</g>
<g>
	<path fill="#FFFFFF" enable-background="new    " d="M168.045,286.056h12.328c0,0,33.348,0,59.172,26s60.828,26,60.828,26h10.672"
		/>
	<path fill="#00AEEF" d="M168.045,278.556v15h12.328c0.282,0.002,30.673,0.45,53.851,23.785
		c27.705,27.895,64.593,28.215,66.149,28.215h10.672v-15h-10.672c-0.301-0.002-32.313-0.434-55.507-23.785
		c-27.705-27.895-63.004-28.215-64.493-28.215H168.045z"/>
</g>
<g>
	<path fill="#FFFFFF" enable-background="new    " d="M454.045,286.056h-12.328c0,0-33.348,0-59.172,26s-60.828,26-60.828,26
		h-10.672"/>
	<path fill="#00AEEF" d="M441.717,278.556c-1.489,0-36.788,0.32-64.493,28.215c-23.193,23.352-55.206,23.783-55.526,23.785h-10.652
		v15h10.672c1.557,0,38.444-0.32,66.149-28.215c23.178-23.335,53.568-23.783,53.872-23.785h12.307v-15H441.717z"/>
</g>
<g>
	<path fill="#FFFFFF" enable-background="new    " d="M168.545,338.056h12.328c0,0,33.348,0,59.172-26s60.828-26,60.828-26h10.672"
		/>
	<path fill="#00AEEF" d="M300.873,278.556c-1.557,0-38.444,0.32-66.149,28.215c-23.177,23.335-53.568,23.783-53.873,23.785h-12.306
		v15h12.328c1.489,0,36.788-0.32,64.493-28.215c23.193-23.352,55.206-23.783,55.526-23.785h10.652v-15H300.873z"/>
</g>
<g>
	<path fill="#FFFFFF" enable-background="new    " d="M454.545,338.056h-12.328c0,0-33.348,0-59.172-26s-60.828-26-60.828-26
		h-10.672"/>
	<path fill="#00AEEF" d="M311.545,278.556v15h10.672c0.301,0.002,32.313,0.434,55.507,23.785
		c27.705,27.895,63.004,28.215,64.493,28.215h12.328v-15h-12.328c-0.282-0.002-30.673-0.45-53.851-23.785
		c-27.705-27.895-64.593-28.215-66.149-28.215H311.545z"/>
</g>
<g>
	<g>
		<path fill="#FFFFFF" stroke="#FFFFFF" stroke-width="10" stroke-linecap="round" stroke-linejoin="bevel" d="M318.18,272.179
			l-31.5,72c-1.66,3.795,0.07,8.217,3.865,9.877s8.217-0.07,9.877-3.865l31.5-72c1.66-3.795-0.069-8.217-3.864-9.877
			S319.84,268.384,318.18,272.179z"/>
	</g>
	<g>
		<path fill="#00AEEF" d="M318.18,272.179l-31.5,72c-1.66,3.795,0.07,8.217,3.865,9.877s8.217-0.07,9.877-3.865l31.5-72
			c1.66-3.795-0.069-8.217-3.864-9.877S319.84,268.384,318.18,272.179z"/>
	</g>
</g>
<g>
	<g>
		<path fill="#FFFFFF" stroke="#FFFFFF" stroke-width="10" stroke-linecap="round" stroke-linejoin="bevel" d="M339.91,311.179
			l31.5,72c1.66,3.794-0.07,8.216-3.865,9.876s-8.217-0.07-9.877-3.865l-31.5-72c-1.66-3.795,0.069-8.217,3.864-9.877
			S338.25,307.384,339.91,311.179z"/>
	</g>
	<g>
		<path fill="#00AEEF" d="M339.91,311.179l31.5,72c1.66,3.794-0.07,8.216-3.865,9.876s-8.217-0.07-9.877-3.865l-31.5-72
			c-1.66-3.795,0.069-8.217,3.864-9.877S338.25,307.384,339.91,311.179z"/>
	</g>
</g>
<g>
	<g>
		<path fill="#FFFFFF" stroke="#FFFFFF" stroke-width="10" stroke-linecap="round" stroke-linejoin="bevel" d="M261.41,232.179
			l31.5,72c1.66,3.795-0.07,8.217-3.865,9.877s-8.217-0.07-9.877-3.865l-31.5-72c-1.66-3.795,0.07-8.217,3.865-9.877
			S259.75,228.384,261.41,232.179z"/>
	</g>
	<g>
		<path fill="#00AEEF" d="M261.41,232.179l31.5,72c1.66,3.795-0.07,8.217-3.865,9.877s-8.217-0.07-9.877-3.865l-31.5-72
			c-1.66-3.795,0.07-8.217,3.865-9.877S259.75,228.384,261.41,232.179z"/>
	</g>
</g>
<g>
	<g>
		<path fill="#FFFFFF" stroke="#FFFFFF" stroke-width="10" stroke-linecap="round" stroke-linejoin="bevel" d="M357.68,232.179
			l-48.5,112c-1.66,3.795,0.07,8.217,3.865,9.877s8.217-0.07,9.877-3.865l48.5-112c1.66-3.795-0.069-8.217-3.864-9.877
			S359.34,228.384,357.68,232.179z"/>
	</g>
	<g>
		<path fill="#00AEEF" d="M357.68,232.179l-48.5,112c-1.66,3.795,0.07,8.217,3.865,9.877s8.217-0.07,9.877-3.865l48.5-112
			c1.66-3.795-0.069-8.217-3.864-9.877S359.34,228.384,357.68,232.179z"/>
	</g>
</g>
<g>
	<g>
		<path fill="#FFFFFF" stroke="#FFFFFF" stroke-width="10" stroke-linecap="round" stroke-linejoin="bevel" d="M294.68,272.179
			l-48.5,112c-1.66,3.794,0.07,8.216,3.865,9.876s8.217-0.07,9.877-3.865l48.5-112c1.66-3.795-0.069-8.217-3.864-9.877
			S296.34,268.384,294.68,272.179z"/>
	</g>
	<g>
		<path fill="#00AEEF" d="M294.68,272.179l-48.5,112c-1.66,3.794,0.07,8.216,3.865,9.876s8.217-0.07,9.877-3.865l48.5-112
			c1.66-3.795-0.069-8.217-3.864-9.877S296.34,268.384,294.68,272.179z"/>
	</g>
</g>
<text transform="matrix(1 0 0 1 141.1045 518.7505)"><tspan x="0" y="0" font-family="'Myriad-BoldItalic'" font-size="127.9056" letter-spacing="-9">Frost</tspan><tspan x="233.933" y="0" fill="#9D9FA2" font-family="'Myriad-Italic'" font-size="127.9056" letter-spacing="-9">Wire</tspan></text>
<g>
	<g>
		<g>
			<path fill="#0071BC" d="M128.86,473.208c0,33.09-26.821,59.91-59.909,59.91c-33.085,0-59.906-26.82-59.906-59.91
				c0-33.084,26.821-59.906,59.906-59.906C102.039,413.302,128.86,440.125,128.86,473.208z"/>
			<path fill="#0074BD" d="M127.785,474.133c0,32.311-26.349,58.499-58.854,58.499c-32.502,0-58.852-26.188-58.852-58.499
				c0-32.304,26.349-58.494,58.852-58.494C101.436,415.639,127.785,441.83,127.785,474.133z"/>
			<path fill="#0076BF" d="M126.71,475.059c0,31.53-25.877,57.086-57.8,57.086c-31.92,0-57.797-25.556-57.797-57.086
				c0-31.524,25.876-57.083,57.797-57.083C100.833,417.976,126.71,443.535,126.71,475.059z"/>
			<path fill="#0078C0" d="M125.635,475.984c0,30.751-25.405,55.675-56.745,55.675c-31.338,0-56.743-24.924-56.743-55.675
				c0-30.745,25.405-55.671,56.743-55.671C100.23,420.313,125.635,445.239,125.635,475.984z"/>
			<path fill="#007AC2" d="M124.56,476.909c0,29.972-24.933,54.264-55.69,54.264c-30.755,0-55.688-24.292-55.688-54.264
				c0-29.965,24.933-54.259,55.688-54.259C99.627,422.65,124.56,446.944,124.56,476.909z"/>
			<path fill="#007DC4" d="M123.484,477.834c0,29.191-24.46,52.852-54.636,52.852c-30.173,0-54.633-23.66-54.633-52.852
				c0-29.186,24.46-52.848,54.633-52.848C99.024,424.987,123.484,448.649,123.484,477.834z"/>
			<path fill="#007FC5" d="M122.409,478.759c0,28.411-23.988,51.439-53.581,51.439c-29.591,0-53.579-23.028-53.579-51.439
				c0-28.406,23.988-51.436,53.579-51.436C98.421,427.324,122.409,450.353,122.409,478.759z"/>
			<path fill="#0081C7" d="M121.334,479.684c0,27.632-23.516,50.028-52.526,50.028c-29.008,0-52.524-22.396-52.524-50.028
				c0-27.626,23.516-50.023,52.524-50.023C97.818,429.661,121.334,452.058,121.334,479.684z"/>
			<path fill="#0084C8" d="M120.259,480.61c0,26.852-23.044,48.616-51.472,48.616c-28.426,0-51.47-21.765-51.47-48.616
				c0-26.847,23.044-48.612,51.47-48.612C97.215,431.998,120.259,453.763,120.259,480.61z"/>
			<path fill="#0087CA" d="M119.184,481.535c0,26.072-22.572,47.205-50.417,47.205c-27.844,0-50.415-21.133-50.415-47.205
				c0-26.066,22.571-47.2,50.415-47.2C96.612,434.334,119.184,455.468,119.184,481.535z"/>
			<ellipse fill="#0089CC" cx="68.747" cy="482.46" rx="49.361" ry="45.792"/>
			<path fill="#008CCE" d="M117.033,483.385c0,24.513-21.627,44.381-48.308,44.381c-26.679,0-48.306-19.868-48.306-44.381
				c0-24.508,21.627-44.377,48.306-44.377C95.406,439.008,117.033,458.877,117.033,483.385z"/>
			<path fill="#008ED0" d="M115.958,484.31c0,23.733-21.155,42.97-47.253,42.97c-26.096,0-47.251-19.236-47.251-42.97
				c0-23.728,21.155-42.965,47.251-42.965C94.803,441.345,115.958,460.583,115.958,484.31z"/>
			<path fill="#0091D1" d="M114.883,485.236c0,22.953-20.683,41.558-46.198,41.558c-25.514,0-46.196-18.604-46.196-41.558
				c0-22.948,20.682-41.554,46.196-41.554C94.2,443.682,114.883,462.288,114.883,485.236z"/>
			<path fill="#0093D3" d="M113.808,486.161c0,22.174-20.211,40.146-45.144,40.146c-24.932,0-45.142-17.972-45.142-40.146
				c0-22.169,20.21-40.142,45.142-40.142C93.597,446.019,113.808,463.992,113.808,486.161z"/>
			<path fill="#0096D5" d="M112.732,487.085c0,21.395-19.739,38.734-44.089,38.734c-24.349,0-44.087-17.34-44.087-38.734
				c0-21.389,19.738-38.729,44.087-38.729C92.994,448.357,112.732,465.697,112.732,487.085z"/>
			<path fill="#0099D7" d="M111.657,488.011c0,20.613-19.266,37.322-43.034,37.322c-23.767,0-43.033-16.709-43.033-37.322
				c0-20.609,19.266-37.317,43.033-37.317C92.391,450.694,111.657,467.402,111.657,488.011z"/>
			<path fill="#009BD8" d="M110.582,488.936c0,19.834-18.794,35.911-41.979,35.911c-23.185,0-41.978-16.077-41.978-35.911
				c0-19.829,18.793-35.905,41.978-35.905C91.788,453.031,110.582,469.107,110.582,488.936z"/>
			<path fill="#009FDB" d="M109.507,489.861c0,19.055-18.322,34.499-40.925,34.499c-22.602,0-40.923-15.444-40.923-34.499
				c0-19.05,18.321-34.493,40.923-34.493C91.185,455.368,109.507,470.811,109.507,489.861z"/>
			<path fill="#00A2DC" d="M108.432,490.787c0,18.274-17.85,33.087-39.87,33.087c-22.02,0-39.869-14.812-39.869-33.087
				c0-18.271,17.849-33.082,39.869-33.082C90.582,457.705,108.432,472.516,108.432,490.787z"/>
			<path fill="#04A4DE" d="M107.356,491.711c0,17.495-17.377,31.676-38.815,31.676c-21.438,0-38.814-14.181-38.814-31.676
				c0-17.49,17.377-31.67,38.814-31.67C89.979,460.042,107.356,474.221,107.356,491.711z"/>
			<path fill="#16A7E0" d="M106.281,492.636c0,16.716-16.905,30.265-37.761,30.265c-20.855,0-37.76-13.549-37.76-30.265
				c0-16.71,16.905-30.258,37.76-30.258C89.376,462.378,106.281,475.926,106.281,492.636z"/>
			<ellipse fill="#1DAAE2" cx="68.5" cy="493.562" rx="36.706" ry="28.852"/>
			<path fill="#26ADE4" d="M104.131,494.487c0,15.156-15.961,27.44-35.651,27.44s-35.65-12.284-35.65-27.44
				c0-15.151,15.96-27.435,35.65-27.435S104.131,479.335,104.131,494.487z"/>
			<path fill="#2BB0E5" d="M103.056,495.413c0,14.376-15.489,26.028-34.597,26.028s-34.596-11.652-34.596-26.028
				c0-14.372,15.488-26.023,34.596-26.023S103.056,481.041,103.056,495.413z"/>
			<path fill="#2FB3E7" d="M101.98,496.337c0,13.597-15.017,24.617-33.542,24.617s-33.542-11.021-33.542-24.617
				c0-13.592,15.016-24.611,33.542-24.611S101.98,482.746,101.98,496.337z"/>
			<path fill="#36B6E9" d="M100.905,497.262c0,12.816-14.544,23.205-32.487,23.205c-17.943,0-32.487-10.389-32.487-23.205
				c0-12.812,14.543-23.199,32.487-23.199C86.361,474.063,100.905,484.45,100.905,497.262z"/>
			<ellipse fill="#39BAEC" cx="68.398" cy="498.188" rx="31.432" ry="21.793"/>
			<path fill="#3DBDED" d="M98.755,499.113c0,11.257-13.6,20.382-30.378,20.382C51.599,519.495,38,510.37,38,499.113
				c0-11.253,13.599-20.376,30.377-20.376C85.155,478.737,98.755,487.86,98.755,499.113z"/>
			<path fill="#43C0EF" d="M97.68,500.038c0,10.478-13.128,18.971-29.323,18.971c-16.196,0-29.323-8.493-29.323-18.971
				c0-10.473,13.127-18.964,29.323-18.964C84.552,481.074,97.68,489.565,97.68,500.038z"/>
			<ellipse fill="#46C4F2" cx="68.336" cy="500.963" rx="28.269" ry="17.558"/>
			<path fill="#4AC8F5" d="M95.529,501.888c0,8.918-12.184,16.146-27.214,16.146c-15.031,0-27.214-7.229-27.214-16.146
				c0-8.914,12.183-16.141,27.214-16.141C83.346,485.748,95.529,492.974,95.529,501.888z"/>
		</g>
	</g>
	<g>
		<path opacity="0" fill="#008FD4" d="M114.437,448.064c0,12.209-20.483,15.305-45.745,15.305c-25.256,0-45.728-3.096-45.728-15.305
			c0-12.219,20.472-28.92,45.728-28.92C93.953,419.144,114.437,435.845,114.437,448.064z"/>
		<path opacity="0.0476" fill="#0092D6" d="M112.838,447.267c0,11.73-19.775,14.703-44.164,14.703
			c-24.384,0-44.148-2.973-44.148-14.703c0-11.74,19.765-27.785,44.148-27.785C93.062,419.482,112.838,435.527,112.838,447.267z"/>
		<path opacity="0.0952" fill="#0096D7" d="M111.24,446.47c0,11.25-19.068,14.104-42.584,14.104
			c-23.513,0-42.569-2.854-42.569-14.104c0-11.26,19.057-26.65,42.569-26.65C92.172,419.82,111.24,435.21,111.24,446.47z"/>
		<path opacity="0.1429" fill="#0099D9" d="M109.642,445.671c0,10.771-18.36,13.504-41.003,13.504
			c-22.641,0-40.991-2.732-40.991-13.504c0-10.779,18.351-25.512,40.991-25.512C91.281,420.16,109.642,434.892,109.642,445.671z"/>
		<path opacity="0.1905" fill="#009DDB" d="M108.044,444.875c0,10.293-17.652,12.902-39.424,12.902
			c-21.769,0-39.411-2.609-39.411-12.902c0-10.301,17.643-24.377,39.411-24.377C90.392,420.498,108.044,434.574,108.044,444.875z"/>
		<path opacity="0.2381" fill="#00A1DC" d="M106.445,444.078c0,9.812-16.944,12.301-37.843,12.301
			c-20.896,0-37.832-2.488-37.832-12.301c0-9.82,16.936-23.242,37.832-23.242C89.501,420.835,106.445,434.257,106.445,444.078z"/>
		<path opacity="0.2857" fill="#25A5DE" d="M104.847,443.279c0,9.334-16.236,11.701-36.262,11.701
			c-20.024,0-36.253-2.367-36.253-11.701c0-9.34,16.229-22.104,36.253-22.104C88.61,421.175,104.847,433.939,104.847,443.279z"/>
		<path opacity="0.3333" fill="#3FAAE0" d="M103.249,442.482c0,8.855-15.529,11.102-34.682,11.102
			c-19.153,0-34.674-2.246-34.674-11.102c0-8.861,15.521-20.969,34.674-20.969C87.72,421.513,103.249,433.621,103.249,442.482z"/>
		<path opacity="0.381" fill="#51AEE2" d="M101.65,441.685c0,8.375-14.821,10.5-33.101,10.5c-18.281,0-33.096-2.125-33.096-10.5
			c0-8.381,14.814-19.834,33.096-19.834C86.829,421.851,101.65,433.304,101.65,441.685z"/>
		<path opacity="0.4286" fill="#61B3E4" d="M100.052,440.886c0,7.898-14.113,9.9-31.52,9.9c-17.409,0-31.517-2.002-31.517-9.9
			c0-7.9,14.107-18.695,31.517-18.695C85.938,422.191,100.052,432.986,100.052,440.886z"/>
		<path opacity="0.4762" fill="#6FB8E6" d="M98.454,440.089c0,7.418-13.406,9.299-29.939,9.299c-16.538,0-29.938-1.881-29.938-9.299
			c0-7.42,13.399-17.561,29.938-17.561C85.048,422.529,98.454,432.669,98.454,440.089z"/>
		<path opacity="0.5238" fill="#7EBDE8" d="M96.855,439.292c0,6.938-12.697,8.699-28.359,8.699c-15.665,0-28.357-1.762-28.357-8.699
			c0-6.941,12.692-16.426,28.357-16.426C84.158,422.867,96.855,432.351,96.855,439.292z"/>
		<path opacity="0.5714" fill="#8AC2EA" d="M95.258,438.496c0,6.459-11.99,8.098-26.779,8.098c-14.794,0-26.778-1.639-26.778-8.098
			c0-6.463,11.984-15.291,26.778-15.291C83.268,423.205,95.258,432.033,95.258,438.496z"/>
		<path opacity="0.619" fill="#97C8EC" d="M93.659,437.697c0,5.98-11.282,7.498-25.198,7.498c-13.922,0-25.199-1.518-25.199-7.498
			s11.277-14.152,25.199-14.152C82.377,423.544,93.659,431.716,93.659,437.697z"/>
		<path opacity="0.6667" fill="#A4CEEE" d="M92.061,436.9c0,5.5-10.574,6.896-23.617,6.896c-13.05,0-23.621-1.396-23.621-6.896
			c0-5.502,10.571-13.018,23.621-13.018C81.486,423.882,92.061,431.398,92.061,436.9z"/>
		<path opacity="0.7143" fill="#B0D4F0" d="M90.463,436.103c0,5.021-9.867,6.297-22.037,6.297c-12.179,0-22.042-1.275-22.042-6.297
			c0-5.023,9.863-11.883,22.042-11.883C80.596,424.22,90.463,431.08,90.463,436.103z"/>
		<path opacity="0.7619" fill="#BDDAF2" d="M88.864,435.304c0,4.543-9.159,5.697-20.456,5.697c-11.307,0-20.463-1.154-20.463-5.697
			c0-4.541,9.156-10.744,20.463-10.744C79.705,424.56,88.864,430.763,88.864,435.304z"/>
		<path opacity="0.8095" fill="#C9E0F4" d="M87.266,434.507c0,4.064-8.451,5.096-18.875,5.096c-10.435,0-18.884-1.031-18.884-5.096
			c0-4.062,8.449-9.609,18.884-9.609C78.814,424.898,87.266,430.445,87.266,434.507z"/>
		<path opacity="0.8571" fill="#D6E7F7" d="M85.668,433.71c0,3.584-7.743,4.494-17.296,4.494c-9.562,0-17.304-0.91-17.304-4.494
			c0-3.582,7.741-8.475,17.304-8.475C77.925,425.236,85.668,430.128,85.668,433.71z"/>
		<path opacity="0.9048" fill="#E3EEF9" d="M84.069,432.912c0,3.105-7.035,3.895-15.715,3.895c-8.69,0-15.726-0.789-15.726-3.895
			c0-3.102,7.035-7.336,15.726-7.336C77.034,425.576,84.069,429.81,84.069,432.912z"/>
		<path opacity="0.9524" fill="#EFF5FC" d="M82.472,432.115c0,2.627-6.328,3.295-14.135,3.295c-7.819,0-14.146-0.668-14.146-3.295
			c0-2.623,6.327-6.201,14.146-6.201C76.144,425.914,82.472,429.492,82.472,432.115z"/>
		<path fill="#FFFFFF" d="M80.873,431.318c0,2.146-5.62,2.693-12.554,2.693c-6.947,0-12.567-0.547-12.567-2.693
			c0-2.143,5.62-5.066,12.567-5.066C75.253,426.251,80.873,429.175,80.873,431.318z"/>
	</g>
</g>
<g>
	<g>
		<path fill="#FFFFFF" enable-background="new    " d="M71.794,459.859l-12.314,28.148c-0.649,1.484,0.027,3.213,1.511,3.861
			c1.484,0.648,3.213-0.027,3.861-1.512l12.315-28.146c0.648-1.484-0.027-3.213-1.511-3.861
			C74.173,457.699,72.443,458.376,71.794,459.859z"/>
	</g>
</g>
<g>
	<path fill="#FFFFFF" d="M88.019,444.222l-18.961,43.785c-0.649,1.484,0.027,3.213,1.511,3.861c1.484,0.648,3.213-0.027,3.861-1.512
		l18.961-43.785c0.649-1.484-0.026-3.213-1.511-3.861C90.396,442.062,88.668,442.738,88.019,444.222z"/>
</g>
<g>
	<g>
		<path fill="#FFFFFF" d="M72.118,457l-13.607,31.102c-0.717,1.639,0.03,3.549,1.669,4.268c1.64,0.717,3.55-0.031,4.267-1.67
			l13.607-31.102c0.718-1.641-0.029-3.551-1.669-4.268S72.835,455.361,72.118,457z"/>
	</g>
	<g>
		<g>
			<path fill="#FFFFFF" enable-background="new    " d="M90.044,439.72l-20.95,48.381c-0.717,1.639,0.031,3.549,1.67,4.268
				c1.64,0.717,3.55-0.031,4.267-1.67l20.951-48.381c0.717-1.641-0.03-3.551-1.67-4.268
				C92.673,437.333,90.762,438.082,90.044,439.72z"/>
			<g>
				<path fill="#FFFFFF" d="M89.176,507.544c0.717,1.641,2.627,2.387,4.267,1.67s2.387-2.627,1.67-4.266l-12.012-27.453
					l-3.518,8.125L89.176,507.544z"/>
			</g>
		</g>
	</g>
	<g>
		<g>
			<path fill="#FFFFFF" enable-background="new    " d="M61.967,457L41.016,505.38c-0.717,1.639,0.03,3.549,1.67,4.266
				c1.639,0.717,3.55-0.029,4.267-1.67l20.951-48.379c0.717-1.641-0.03-3.551-1.67-4.268S62.684,455.361,61.967,457z"/>
			<g>
				<path fill="#FFFFFF" d="M47.595,439.72c-0.717-1.639-2.628-2.387-4.267-1.67c-1.64,0.717-2.387,2.627-1.669,4.268l12.218,27.928
					l3.518-8.125L47.595,439.72z"/>
			</g>
		</g>
	</g>
	<g>
		<path fill="#FFFFFF" d="M61.967,457L41.016,505.38c-0.717,1.639,0.03,3.549,1.67,4.266c1.639,0.717,3.55-0.029,4.267-1.67
			l20.951-48.379c0.717-1.641-0.03-3.551-1.67-4.268S62.684,455.361,61.967,457z"/>
	</g>
</g>
<g>
	<path fill="#FFFFFF" d="M125.254,481.763c-0.112,0-11.264-0.172-20.848-8.08c9.535-7.734,20.521-7.902,20.641-7.902h3.395
		c-0.256-2.199-0.626-4.361-1.112-6.48h-2.291c-0.602,0-13.946,0.125-25.457,9.963c-3.385-2.873-6.97-4.914-10.366-6.369
		l-2.584,5.967c2.667,1.139,5.466,2.691,8.119,4.822c-2.787,2.279-5.745,3.912-8.548,5.086l2.607,5.961
		c3.524-1.49,7.261-3.609,10.771-6.635c11.56,10.023,25.068,10.148,25.673,10.148h1.568c0.564-2.117,1.02-4.279,1.352-6.48H125.254z
		"/>
	<path fill="#FFFFFF" d="M37.817,478.281c3.176,2.695,6.526,4.658,9.732,6.092l2.585-5.967c-2.475-1.109-5.043-2.584-7.487-4.545
		c2.75-2.248,5.666-3.869,8.435-5.039l-2.607-5.961c-3.491,1.488-7.185,3.594-10.658,6.588
		C26.258,459.425,12.749,459.3,12.145,459.3H10.55c-0.485,2.119-0.856,4.281-1.111,6.48h2.706c0.112,0,11.264,0.172,20.848,8.08
		c-9.535,7.734-20.521,7.902-20.641,7.902H9.706c0.332,2.201,0.787,4.363,1.352,6.48h1.303
		C12.962,488.244,26.307,488.119,37.817,478.281z"/>
</g>
</svg>
